<svg width="33" height="30" viewBox="0 0 33 30" fill="none" xmlns="http://www.w3.org/2000/svg">
<path d="M31.1789 2.49659C31.3791 2.46306 31.5849 2.5011 31.7595 2.60394C31.9153 2.66941 32.0482 2.77868 32.142 2.91828C32.2358 3.05787 32.2864 3.22166 32.2874 3.38942L32.4379 24.0291C32.4465 24.1856 32.412 24.3413 32.3381 24.4797C32.2641 24.6181 32.1535 24.7339 32.0182 24.8146L23.5221 29.8286C23.3697 29.9411 23.1842 30.0009 22.9942 29.9988C22.9477 30.0028 22.9009 30.0028 22.8543 29.9988L0.820985 27.5559C0.600611 27.5446 0.39292 27.4502 0.240355 27.292C0.0877892 27.1339 0.0018662 26.9239 0.000144116 26.705V5.70134C-0.00300688 5.53002 0.0455762 5.36168 0.139646 5.21797C0.233715 5.07427 0.36897 4.96176 0.528016 4.89492L11.5843 0.0694682C11.7277 0.00362881 11.8868 -0.0208689 12.0435 -0.00122475L31.1789 2.48874V2.49659ZM21.3446 2.9417L14.8333 6.60726L22.8517 7.62314L28.7903 3.91045L21.3446 2.9417ZM13.6905 8.17821L13.3949 16.918L10.0904 14.6846L6.78857 16.5383L7.45633 7.39797L1.72892 6.67272V25.9326L22.1391 28.1843V9.25694L13.6931 8.18607L13.6905 8.17821ZM8.49096 5.79822L14.8122 2.09338L12.062 1.73206L4.02253 5.23529L8.49624 5.80345L8.49096 5.79822ZM23.8705 9.0082V27.6293L30.7064 23.5867L30.5692 4.81899L23.8705 9.0082Z" fill="#1E1E1E"/>
</svg>
